<svg xmlns="http://www.w3.org/2000/svg" width="23.971" height="17.924" viewBox="0 0 23.971 17.924">
  <path id="Trazado_3500" data-name="Trazado 3500" d="M18.376,31.377l-1.49,1.72-1.08,1.257a.543.543,0,0,1-.591.187.565.565,0,0,1-.368-.576V29.3a.36.36,0,0,0-.158-.324c-1.232-.971-2.457-1.952-3.683-2.929a.575.575,0,0,1-.266-.586c.05-.26.231-.355.45-.425l7.491-2.367c1.572-.5,3.142-1,4.713-1.5l10.261-3.251c.1-.032.2-.074.3-.1a.554.554,0,0,1,.654.184.544.544,0,0,1-.018.637q-.847,1.307-1.694,2.611-2.982,4.616-5.962,9.235-1.578,2.439-3.15,4.885a.546.546,0,0,1-.931.131q-1.644-1.509-3.28-3.026C19.179,32.108,18.783,31.749,18.376,31.377Zm4.8,3,8.82-13.658-.039-.034L19.126,30.642ZM12.352,25.767a.866.866,0,0,0,.071.076c.964.771,1.93,1.539,2.89,2.313a.243.243,0,0,0,.321.01q2-1.135,3.994-2.263l8.128-4.579,1.595-.9-.018-.039ZM15.9,32.65c.539-.627,1.029-1.2,1.527-1.768a5.9,5.9,0,0,1,.719-.792c1.482-1.171,2.984-2.32,4.479-3.478l4.1-3.178q.651-.508,1.3-1.016c-1.016.528-2.008,1.085-3,1.645q-4.484,2.532-8.961,5.071a.355.355,0,0,0-.145.259c-.014.787-.014,1.573-.017,2.359,0,.28,0,.56,0,.9Z" transform="translate(-10.729 -17.779)" fill="#f8f8f8"/>
</svg>
