<svg id="Grupo_236" data-name="Grupo 236" xmlns="http://www.w3.org/2000/svg" width="25.963" height="22.696" viewBox="0 0 25.963 22.696">
  <path id="Trazado_3488" data-name="Trazado 3488" d="M23.7,58.553H20.943a.55.55,0,0,0-.139-.02H17.292a.553.553,0,0,0-.139.02h-2.8a.775.775,0,0,0-.773.778v8.39a.776.776,0,0,0,.778.773H23.7a.778.778,0,0,0,.779-.778V59.331A.778.778,0,0,0,23.7,58.553Zm-5.858,1.12h2.405v2.265L19.2,61.566a.624.624,0,0,0-.187-.031H19a.588.588,0,0,0-.2.034l-.963.358Zm5.516,7.7H14.716v-7.7h2.016v3.061a.563.563,0,0,0,.756.527l1.526-.56,1.6.56a.624.624,0,0,0,.187.031.549.549,0,0,0,.56-.557V59.673h1.991Z" transform="translate(-13.585 -45.798)" fill="#222"/>
  <path id="Trazado_3489" data-name="Trazado 3489" d="M23.7,24.921H20.952A.568.568,0,0,0,20.8,24.9H17.293a.566.566,0,0,0-.149.022H14.36a.776.776,0,0,0-.775.776v8.389a.776.776,0,0,0,.778.773H23.7a.779.779,0,0,0,.779-.779V25.7A.779.779,0,0,0,23.7,24.921Zm-5.858,1.12h2.405V28.3l-1.045-.37a.563.563,0,0,0-.187-.034H19a.591.591,0,0,0-.2.023l-.963.359Zm5.516,7.7H14.716v-7.7h2.016V29.1a.563.563,0,0,0,.756.526l1.526-.56,1.6.56a.555.555,0,0,0,.748-.526V26.042h1.991Z" transform="translate(-13.585 -22.706)" fill="#222"/>
  <path id="Trazado_3490" data-name="Trazado 3490" d="M60.848,58.547H58.09a.553.553,0,0,0-.148-.023h-3.5a.555.555,0,0,0-.149.023H51.526a.778.778,0,0,0-.778.778v8.384a.778.778,0,0,0,.778.778h9.322a.778.778,0,0,0,.778-.778V59.325A.778.778,0,0,0,60.848,58.547ZM55,59.667h2.383v2.265l-1.044-.372a.627.627,0,0,0-.188-.031.587.587,0,0,0-.19.034l-.96.358Zm5.508,7.7H51.868v-7.7h2.01v3.058a.561.561,0,0,0,.748.529l1.526-.56,1.6.56a.625.625,0,0,0,.188.031.554.554,0,0,0,.56-.56V59.667h2.005Z" transform="translate(-39.099 -45.792)" fill="#222"/>
  <path id="Trazado_3491" data-name="Trazado 3491" d="M71.809,17.924H69.042a.555.555,0,0,0-.139-.02H65.391a.552.552,0,0,0-.139.02H62.488a.778.778,0,0,0-.779.778v8.387a.778.778,0,0,0,.779.778h9.322a.781.781,0,0,0,.778-.765V18.7A.781.781,0,0,0,71.809,17.924Zm-5.858,1.12h2.391v2.268L67.3,20.939a.523.523,0,0,0-.185-.031.588.588,0,0,0-.2.034l-.963.358Zm5.516,7.7H62.829v-7.7h2V22.1a.563.563,0,0,0,.756.527l1.526-.56,1.6.56a.548.548,0,0,0,.51-.07.56.56,0,0,0,.238-.456V19.044h2Z" transform="translate(-46.624 -17.904)" fill="#222"/>
  <path id="Trazado_3492" data-name="Trazado 3492" d="M51.816,34.379a.559.559,0,0,0,.409-.168l1.3-1.3a.56.56,0,0,0-.792-.79l-1.3,1.3a.56.56,0,0,0,.384.96Z" transform="translate(-39.453 -27.564)" fill="#222"/>
  <path id="Trazado_3493" data-name="Trazado 3493" d="M51.8,42.87a.559.559,0,0,0,.4-.176l1.3-1.3a.56.56,0,1,0-.792-.792L51.42,41.9a.56.56,0,0,0,.384.966Z" transform="translate(-39.441 -33.374)" fill="#222"/>
  <path id="Trazado_3494" data-name="Trazado 3494" d="M52.741,49.116l-1.3,1.3h0a.56.56,0,0,0,.793.792l1.3-1.3a.56.56,0,1,0-.792-.792Z" transform="translate(-39.463 -39.22)" fill="#222"/>
</svg>
