<svg id="Grupo_44" data-name="Grupo 44" xmlns="http://www.w3.org/2000/svg" width="26.358" height="26" viewBox="0 0 26.358 26">
  <path id="Trazado_3351" data-name="Trazado 3351" d="M35.5,22.072C35.337,13.158,28.561,9.1,22.327,9.1H22.3c-.273,0-.548.011-.823.028h-.045v0C15.449,9.5,9.276,13.6,9.145,22.116v.02c.159,8.5,6.326,12.577,12.3,12.939v0h.023c.284.016.568.028.85.028h.024c6.241-.01,13.021-4.087,13.158-13.013Zm-25.225.053c.124-7.781,5.77-11.525,11.241-11.86a10.484,10.484,0,0,1,7.636,2.786c2.189,2.1,3.386,5.254,3.46,9.119a12.185,12.185,0,0,1-3.4,8.865A11.123,11.123,0,0,1,21.5,33.942c-5.453-.341-11.068-4.068-11.218-11.818m21.291,7.84a14.379,14.379,0,0,0,2.18-7.786v-.019a15.074,15.074,0,0,0-2.131-7.863,12,12,0,0,1,2.753,7.788,11.965,11.965,0,0,1-2.8,7.88" transform="translate(-9.145 -9.104)" fill="#222"/>
  <path id="Trazado_3352" data-name="Trazado 3352" d="M44.98,38.25a3.92,3.92,0,0,1-2.121,1.185.339.339,0,0,0-.258.332l0,2.144a.342.342,0,0,1-.341.342l-1.159,0a.342.342,0,0,1-.342-.341l0-2.029a.345.345,0,0,0-.306-.339,5.851,5.851,0,0,1-3.1-1.325.345.345,0,0,1-.04-.491l.793-.906a.338.338,0,0,1,.477-.026c1.661,1.428,5.541,1.3,4.54-1.481a.358.358,0,0,0-.065-.113c-.989-1.132-3.9-1.36-4.674-2.471-1.8-1.873-.472-5.074,2.063-5.45a.341.341,0,0,0,.291-.337l0-1.889a.342.342,0,0,1,.341-.343l1.159,0a.342.342,0,0,1,.342.341l0,1.9a.347.347,0,0,0,.278.343,4.972,4.972,0,0,1,2.367,1.122.345.345,0,0,1,.037.49l-.742.842a.338.338,0,0,1-.463.047c-1.395-1.126-4.74-1.114-3.829,1.215a.349.349,0,0,0,.078.12c1.044,1.038,3.8,1.274,4.665,2.391a3.706,3.706,0,0,1,.008,4.728" transform="translate(-29.155 -20.227)" fill="#222"/>
</svg>
