<svg xmlns="http://www.w3.org/2000/svg" width="25" height="31.472" viewBox="0 0 25 31.472">
  <g id="Grupo_224" data-name="Grupo 224" transform="translate(-20.294 -10.716)">
    <path id="Trazado_3347" data-name="Trazado 3347" d="M51.781,31.157a1.28,1.28,0,0,0-1.087-.6H49.3V23.652a.647.647,0,0,0-1.232-.277l-3.74,7.888A1.287,1.287,0,0,0,45.494,33.1h1.391v6.906a.647.647,0,0,0,1.232.278l3.74-7.888a1.279,1.279,0,0,0-.075-1.239M48.3,25.251v5.307h-.1a1.316,1.316,0,0,0-1.314,1.314v.222H45.494a.28.28,0,0,1-.253-.4Zm-.405,6.844v-.222a.308.308,0,0,1,.307-.307h.1v.222a.307.307,0,0,1-.307.307Zm3.056-.129-3.056,6.443V33.1h.1A1.316,1.316,0,0,0,49.3,31.787v-.222h1.391a.28.28,0,0,1,.253.4" transform="translate(-15.3 -7.863)" fill="#f8f8f8"/>
    <path id="Trazado_3348" data-name="Trazado 3348" d="M32.794,10.716c-7.243,0-12.5,5.809-12.5,13.812,0,7.24,9.325,17.659,12.5,17.659s12.5-10.419,12.5-17.659C45.294,16.525,40.037,10.716,32.794,10.716ZM42.973,24.528c0,2.725-1.6,6.371-4.389,10-2.606,3.393-5.037,5.2-5.79,5.2S29.61,37.923,27,34.53c-2.789-3.631-4.389-7.276-4.389-10,0-6.579,4.281-11.355,10.179-11.355S42.973,17.949,42.973,24.528Z" fill="#f8f8f8"/>
  </g>
</svg>
