<svg xmlns="http://www.w3.org/2000/svg" width="105.617" height="49.912" viewBox="0 0 105.617 49.912">
    <g id="Grupo_241" data-name="Grupo 241" transform="translate(-30 -12.544)">
      <g id="logotipo" transform="translate(-30.144 -13.156)">
        <path id="Trazado_3382" data-name="Trazado 3382" d="M78.042,51.6h-4.2V31.923a1.5,1.5,0,0,0-1.5-1.523,1.486,1.486,0,0,0-1.379.885l-10.5,22.126a3.308,3.308,0,0,0,1.564,4.4,3.416,3.416,0,0,0,1.42.329h4.219V77.822A1.539,1.539,0,0,0,68.841,79.3a1.8,1.8,0,0,0,.329.041,1.493,1.493,0,0,0,1.358-.864l10.5-22.126a3.308,3.308,0,0,0-1.564-4.4,2.8,2.8,0,0,0-1.42-.35Zm-8.151,6.525h.576a3.377,3.377,0,0,0,3.376-3.376v-.926h4.2a1.1,1.1,0,0,1,1.091,1.091,1.221,1.221,0,0,1-.1.473L69.871,74.693V58.124ZM71.62,51.6h-.576a3.377,3.377,0,0,0-3.376,3.376V55.9H63.449a1.1,1.1,0,0,1-1.091-1.091,1.122,1.122,0,0,1,.1-.453L71.62,35.052ZM69.891,55a1.173,1.173,0,0,1,1.173-1.173h.576v.926a1.173,1.173,0,0,1-1.173,1.173h-.576Z" transform="translate(0 -3.733)" fill="#d7187d"/>
        <path id="Trazado_3383" data-name="Trazado 3383" d="M189.5,113.344l-.247-.556a1.572,1.572,0,0,0-.185-.185.492.492,0,0,0-.288-.1h-2.49a.388.388,0,0,0-.165.041,1.223,1.223,0,0,0-.165.082c-.041.041-.1.082-.124.123s-.062.082-.062.123l-5.31,13.728a.218.218,0,0,0,.041.288.555.555,0,0,0,.309.1h2.882a.484.484,0,0,0,.494-.37l.37-.988.37-.988h5.187l.37.988c.123.329.247.659.391.988a.863.863,0,0,0,.185.288.677.677,0,0,0,.35.082h2.8a.415.415,0,0,0,.37-.124.315.315,0,0,0,.021-.329Zm-3.458,8.192c.124-.329.247-.679.37-1.07s.247-.762.37-1.153.247-.782.37-1.153.247-.741.37-1.07l1.5,4.466h-2.984Z" transform="translate(-95.525 -68.935)" fill="#d7187d"/>
        <path id="Trazado_3384" data-name="Trazado 3384" d="M266.272,123.473H260.9V112.832a.438.438,0,0,0-.144-.309.419.419,0,0,0-.309-.123h-2.9a.467.467,0,0,0-.329.123.419.419,0,0,0-.123.309V126.5a.4.4,0,0,0,.329.432h8.83a.4.4,0,0,0,.309-.144.506.506,0,0,0,.1-.309v-2.573a.467.467,0,0,0-.124-.329A.391.391,0,0,0,266.272,123.473Z" transform="translate(-156.41 -68.855)" fill="#d7187d"/>
        <path id="Trazado_3385" data-name="Trazado 3385" d="M320.444,118.407a6.141,6.141,0,0,0-1.5-.885c-.576-.247-1.214-.494-1.914-.72-.35-.124-.679-.226-.947-.329a2.955,2.955,0,0,1-.679-.329,1.434,1.434,0,0,1-.412-.37.8.8,0,0,1-.144-.473.956.956,0,0,1,.124-.473,1.025,1.025,0,0,1,.35-.309,1.553,1.553,0,0,1,.494-.165,3.1,3.1,0,0,1,.6-.062,2.156,2.156,0,0,1,.617.1,4.789,4.789,0,0,1,.576.226,4.377,4.377,0,0,1,.515.329,3.979,3.979,0,0,1,.432.35l.082.082a2.177,2.177,0,0,0,.247.206.585.585,0,0,0,.247.082.43.43,0,0,0,.329-.165l1.5-1.585a1.929,1.929,0,0,0,.185-.247.415.415,0,0,0,.062-.226.813.813,0,0,0-.124-.309,2.008,2.008,0,0,0-.35-.37c-.144-.123-.329-.268-.515-.412s-.412-.268-.638-.412a6.7,6.7,0,0,0-1.605-.638,6.81,6.81,0,0,0-1.708-.206,7.56,7.56,0,0,0-2.141.288,4.952,4.952,0,0,0-1.647.823,3.539,3.539,0,0,0-1.05,1.276,3.778,3.778,0,0,0-.371,1.647,4.483,4.483,0,0,0,.288,1.564,3.852,3.852,0,0,0,.885,1.276,6.128,6.128,0,0,0,1.461,1.05,15.122,15.122,0,0,0,2.058.885,5.874,5.874,0,0,1,.617.226,4.249,4.249,0,0,1,.7.309,1.846,1.846,0,0,1,.556.432.747.747,0,0,1,.226.535,1.421,1.421,0,0,1-.082.515,1,1,0,0,1-.288.432,1.049,1.049,0,0,1-.535.288,2.887,2.887,0,0,1-.844.123,2.935,2.935,0,0,1-1.029-.185,5.62,5.62,0,0,1-.988-.515,6.5,6.5,0,0,1-.6-.453q-.247-.216-.432-.37c-.082-.062-.144-.123-.226-.185a.332.332,0,0,0-.185-.062.6.6,0,0,0-.329.144l-1.688,1.605a.546.546,0,0,0-.226.37.641.641,0,0,0,.226.391l.021.021.021.021.021.021.021.021.021.021.432.432a5.544,5.544,0,0,0,.659.556,8.243,8.243,0,0,0,2.017,1.07,6.235,6.235,0,0,0,2.2.412,6.911,6.911,0,0,0,2.243-.35,6.1,6.1,0,0,0,1.811-.947,4.429,4.429,0,0,0,1.214-1.482,4,4,0,0,0,.432-1.955,3.83,3.83,0,0,0-.35-1.729A3.008,3.008,0,0,0,320.444,118.407Z" transform="translate(-198.747 -67.823)" fill="#d7187d"/>
        <path id="Trazado_3386" data-name="Trazado 3386" d="M387.591,123.735h-6.566v-2.511h4.9a.419.419,0,0,0,.309-.123.391.391,0,0,0,.1-.268v-2.1a.316.316,0,0,0-.124-.288.536.536,0,0,0-.309-.082h-4.878v-2.429h6.339a.457.457,0,0,0,.473-.453v-2.408a.559.559,0,0,0-.123-.35.467.467,0,0,0-.329-.123h-9.694a.419.419,0,0,0-.309.123.38.38,0,0,0-.1.329v13.626a.353.353,0,0,0,.123.309.555.555,0,0,0,.309.1h9.88c.247,0,.371-.082.412-.268a.261.261,0,0,0,.082-.185v-2.449a.408.408,0,0,0-.329-.453Z" transform="translate(-251.857 -69.014)" fill="#d7187d"/>
        <path id="Trazado_3387" data-name="Trazado 3387" d="M448.616,122.158a.644.644,0,0,0-.226-.185.473.473,0,0,0-.288.082,3.826,3.826,0,0,1-2.305.762,3.49,3.49,0,0,1-2.635-1.132,3.563,3.563,0,0,1-.762-1.214,4.352,4.352,0,0,1,0-3.005,3.65,3.65,0,0,1,.762-1.235A3.565,3.565,0,0,1,445.8,115.1a3.81,3.81,0,0,1,2.285.762.369.369,0,0,0,.288.082.345.345,0,0,0,.226-.185l1.647-2.346a.392.392,0,0,0,.021-.37.572.572,0,0,0-.247-.247,7.475,7.475,0,0,0-1.955-.947,7.66,7.66,0,0,0-4.2-.062,7.508,7.508,0,0,0-5.207,9.221,7.86,7.86,0,0,0,.741,1.77,7.47,7.47,0,0,0,8.686,3.355,7.935,7.935,0,0,0,1.976-.947.709.709,0,0,0,.247-.247.466.466,0,0,0-.021-.37Z" transform="translate(-300.388 -68.157)" fill="#d7187d"/>
        <path id="Trazado_3388" data-name="Trazado 3388" d="M515.282,116.936a7.216,7.216,0,0,0-.762-1.791,7.469,7.469,0,0,0-2.7-2.7,8.082,8.082,0,0,0-1.791-.762,7.648,7.648,0,0,0-3.972,0,7.56,7.56,0,0,0-1.791.762,7.021,7.021,0,0,0-1.5,1.173,7.511,7.511,0,0,0-1.914,7.286,7.079,7.079,0,0,0,.762,1.77,7.477,7.477,0,0,0,10.229,2.676,7.7,7.7,0,0,0,1.523-1.173,7.57,7.57,0,0,0,1.173-1.5,7.239,7.239,0,0,0,.741-5.742Zm-3.787,3.5a3.65,3.65,0,0,1-.762,1.235,3.568,3.568,0,0,1-1.173.823,3.89,3.89,0,0,1-2.964,0,3.568,3.568,0,0,1-1.173-.823,3.65,3.65,0,0,1-.762-1.235,4.257,4.257,0,0,1,0-3.026,3.65,3.65,0,0,1,.762-1.235,3.367,3.367,0,0,1,1.173-.823,3.711,3.711,0,0,1,2.964,0,3.568,3.568,0,0,1,1.173.823,3.65,3.65,0,0,1,.762,1.235A4.257,4.257,0,0,1,511.495,120.435Z" transform="translate(-349.786 -68.081)" fill="#d7187d"/>
        <path id="Trazado_3389" data-name="Trazado 3389" d="M78.042,46.9h-4.2V27.223a1.5,1.5,0,0,0-1.5-1.523,1.486,1.486,0,0,0-1.379.885l-10.5,22.126a3.283,3.283,0,0,0,2.984,4.713h4.219V73.1a1.539,1.539,0,0,0,1.173,1.482,1.8,1.8,0,0,0,.329.041,1.493,1.493,0,0,0,1.358-.864l10.5-22.126a3.308,3.308,0,0,0-1.564-4.4,3.065,3.065,0,0,0-1.42-.329Zm-8.151,6.525h.576a3.377,3.377,0,0,0,3.376-3.376v-.926h4.2a1.1,1.1,0,0,1,1.091,1.091,1.221,1.221,0,0,1-.1.473L69.871,69.993V53.424ZM71.62,46.9h-.576a3.377,3.377,0,0,0-3.376,3.376V51.2H63.449a1.1,1.1,0,0,1-1.091-1.091,1.221,1.221,0,0,1,.1-.473L71.62,30.331Zm-1.729,3.376A1.173,1.173,0,0,1,71.064,49.1h.576v.926A1.173,1.173,0,0,1,70.467,51.2h-.576Z" transform="translate(0)" fill="#482aaa"/>
        <path id="Trazado_3390" data-name="Trazado 3390" d="M189.5,108.644l-.247-.556a1.571,1.571,0,0,0-.185-.185.492.492,0,0,0-.288-.1h-2.49a.388.388,0,0,0-.165.041,1.224,1.224,0,0,0-.165.082c-.041.041-.1.082-.124.123s-.062.082-.062.123l-5.31,13.749a.218.218,0,0,0,.041.288.555.555,0,0,0,.309.1h2.882a.484.484,0,0,0,.494-.37l.37-.988.37-.988h5.187l.37.988c.123.329.247.659.391.988a.863.863,0,0,0,.185.288.677.677,0,0,0,.35.082h2.8a.415.415,0,0,0,.37-.123.279.279,0,0,0,.021-.309Zm-3.458,8.171c.124-.329.247-.7.37-1.07s.247-.762.37-1.153.247-.782.37-1.153.247-.741.37-1.07l1.5,4.466Z" transform="translate(-95.525 -65.202)" fill="#482aaa"/>
        <path id="Trazado_3391" data-name="Trazado 3391" d="M266.272,118.853H260.9v-10.62a.438.438,0,0,0-.144-.309.419.419,0,0,0-.309-.123h-2.9a.467.467,0,0,0-.329.123.419.419,0,0,0-.123.309V121.9a.4.4,0,0,0,.329.432h8.83a.421.421,0,0,0,.412-.453v-2.573a.467.467,0,0,0-.124-.329A.332.332,0,0,0,266.272,118.853Z" transform="translate(-156.41 -65.202)" fill="#482aaa"/>
        <path id="Trazado_3392" data-name="Trazado 3392" d="M320.524,113.627a6.14,6.14,0,0,0-1.5-.885c-.576-.247-1.214-.494-1.914-.72-.35-.123-.679-.226-.947-.329a2.953,2.953,0,0,1-.679-.329,1.434,1.434,0,0,1-.412-.37.876.876,0,0,1,0-.947,1.024,1.024,0,0,1,.35-.309,1.553,1.553,0,0,1,.494-.165,3.1,3.1,0,0,1,.6-.062,3.178,3.178,0,0,1,.617.082,4.794,4.794,0,0,1,.576.226,4.382,4.382,0,0,1,.515.329,3.978,3.978,0,0,1,.432.35l.082.082c.082.082.185.144.247.206a.585.585,0,0,0,.247.082.43.43,0,0,0,.329-.165l1.5-1.585a1.932,1.932,0,0,0,.185-.247.415.415,0,0,0,.062-.226.812.812,0,0,0-.123-.309,2.009,2.009,0,0,0-.35-.37c-.144-.123-.329-.268-.515-.412s-.412-.268-.638-.412a6.7,6.7,0,0,0-1.605-.638,6.81,6.81,0,0,0-1.708-.206,7.561,7.561,0,0,0-2.141.288,4.952,4.952,0,0,0-1.647.823,3.721,3.721,0,0,0-1.05,1.276,3.778,3.778,0,0,0-.37,1.647,4.482,4.482,0,0,0,.288,1.564,3.852,3.852,0,0,0,.885,1.276,6.128,6.128,0,0,0,1.461,1.05,15.121,15.121,0,0,0,2.058.885,5.871,5.871,0,0,1,.617.226,4.249,4.249,0,0,1,.7.309,1.846,1.846,0,0,1,.556.432.747.747,0,0,1,.226.535,1.421,1.421,0,0,1-.082.515,1,1,0,0,1-.288.432,1.049,1.049,0,0,1-.535.288,2.322,2.322,0,0,1-.844.1,2.935,2.935,0,0,1-1.029-.185,5.619,5.619,0,0,1-.988-.515,6.491,6.491,0,0,1-.6-.453,5.334,5.334,0,0,0-.432-.37c-.082-.062-.144-.123-.226-.185a.332.332,0,0,0-.185-.062.6.6,0,0,0-.329.144l-1.688,1.605a.546.546,0,0,0-.226.37.641.641,0,0,0,.226.391l.021.021.021.021.021.021.021.021.021.021c.1.1.247.268.432.432a5.542,5.542,0,0,0,.659.556,8.242,8.242,0,0,0,2.017,1.07,6.213,6.213,0,0,0,2.2.391,7.593,7.593,0,0,0,2.243-.329,6.1,6.1,0,0,0,1.811-.947,4.431,4.431,0,0,0,1.214-1.482,4,4,0,0,0,.432-1.955,3.83,3.83,0,0,0-.35-1.729A3.477,3.477,0,0,0,320.524,113.627Z" transform="translate(-198.827 -64.011)" fill="#482aaa"/>
        <path id="Trazado_3393" data-name="Trazado 3393" d="M387.591,119.02h-6.566v-2.49h4.9a.419.419,0,0,0,.309-.123.391.391,0,0,0,.1-.268v-2.12a.316.316,0,0,0-.124-.288.417.417,0,0,0-.309-.082h-4.878v-2.429h6.339a.457.457,0,0,0,.473-.453v-2.408a.559.559,0,0,0-.123-.35.393.393,0,0,0-.329-.123h-9.694a.419.419,0,0,0-.309.123.38.38,0,0,0-.1.329v13.646a.5.5,0,0,0,.123.329.555.555,0,0,0,.309.1h9.88c.247,0,.371-.082.412-.268a.261.261,0,0,0,.082-.185v-2.449a.544.544,0,0,0-.494-.494Z" transform="translate(-251.857 -65.266)" fill="#482aaa"/>
        <path id="Trazado_3394" data-name="Trazado 3394" d="M448.462,117.341a.644.644,0,0,0-.226-.185.473.473,0,0,0-.288.082,3.826,3.826,0,0,1-2.305.762,3.63,3.63,0,0,1-3.4-2.346,4.352,4.352,0,0,1,0-3.005,3.65,3.65,0,0,1,.762-1.235,3.647,3.647,0,0,1,3.849-.926,3.433,3.433,0,0,1,1.05.556.473.473,0,0,0,.288.082.344.344,0,0,0,.226-.185l1.647-2.346a.392.392,0,0,0,.021-.37.572.572,0,0,0-.247-.247,7.475,7.475,0,0,0-1.955-.947,7.627,7.627,0,0,0-4.219-.062,7.405,7.405,0,0,0-3.293,1.935,7.545,7.545,0,0,0-1.173,9.077,7.57,7.57,0,0,0,1.173,1.5,7.458,7.458,0,0,0,5.29,2.182,7.593,7.593,0,0,0,2.243-.329,7.936,7.936,0,0,0,1.976-.947.71.71,0,0,0,.247-.247.466.466,0,0,0-.021-.37Z" transform="translate(-300.234 -64.328)" fill="#482aaa"/>
        <path id="Trazado_3395" data-name="Trazado 3395" d="M515.282,112.136a7.217,7.217,0,0,0-.762-1.791,7.486,7.486,0,0,0-8.459-3.458,7.56,7.56,0,0,0-1.791.762,7.021,7.021,0,0,0-1.5,1.173,7.511,7.511,0,0,0-1.914,7.286,7.079,7.079,0,0,0,.762,1.77,7.573,7.573,0,0,0,2.676,2.676,7.427,7.427,0,0,0,5.763.762,7.217,7.217,0,0,0,1.791-.762,7.7,7.7,0,0,0,1.523-1.173,7.57,7.57,0,0,0,1.173-1.5,7.239,7.239,0,0,0,.741-5.742Zm-3.787,3.5a3.65,3.65,0,0,1-.762,1.235,3.367,3.367,0,0,1-1.173.823,3.89,3.89,0,0,1-2.964,0,3.568,3.568,0,0,1-1.173-.823,3.65,3.65,0,0,1-.762-1.235,4.257,4.257,0,0,1,0-3.026,3.639,3.639,0,0,1,5.928-1.379.951.951,0,0,1,.144.144,3.65,3.65,0,0,1,.762,1.235A4.257,4.257,0,0,1,511.495,115.635Z" transform="translate(-349.786 -64.269)" fill="#482aaa"/>
      </g>
    </g>
  </svg>