<svg xmlns="http://www.w3.org/2000/svg" width="24.871" height="27.717" viewBox="0 0 24.871 27.717">
  <path id="Trazado_3396" data-name="Trazado 3396" d="M29.914,8.184V4a.845.845,0,0,0-1.606-.375l-3.643,7.312a.641.641,0,0,0-.158.132,8.132,8.132,0,0,0-.333,10.012l-.938.781A2.517,2.517,0,0,0,20,21.876L14.963,26.15a2.519,2.519,0,0,0-.282,3.548l.248.282a2.516,2.516,0,0,0,1.713.882h.211a2.5,2.5,0,0,0,1.623-.6l5.041-4.258a2.536,2.536,0,0,0,.544-3.187l.93-.789a8.092,8.092,0,0,0,5.123,2.387c.228.02.454.028.679.028a8.155,8.155,0,1,0-.879-16.262ZM28.652,5.764v5.021a.668.668,0,0,0,0,.132.629.629,0,0,0,.643.581H31.63l-2.759,5.554V11.937a.631.631,0,0,0-.631-.631H25.9ZM17.662,29.329a1.257,1.257,0,0,1-1.767-.144h0l-.251-.282a1.257,1.257,0,0,1,.147-1.77l2.764-2.345L20.418,27ZM22.7,25.043,21.379,26.17,19.5,23.964l1.324-1.127a1.259,1.259,0,0,1,1.77.147l.248.282a1.251,1.251,0,0,1-.131,1.765Zm12.542-3.5A6.892,6.892,0,0,1,25,12.529a.838.838,0,0,0,.225.031h2.384v6.264a.845.845,0,0,0,.654.826.934.934,0,0,0,.2.022.846.846,0,0,0,.755-.47l3.843-7.729a.846.846,0,0,0-.758-1.223H29.914v-.8a6.9,6.9,0,0,1,5.329,12.1Z" transform="translate(-14.08 -3.145)" fill="#3a3a3a"/>
</svg>
