<svg id="Grupo_239" data-name="Grupo 239" xmlns="http://www.w3.org/2000/svg" width="25.564" height="22.695" viewBox="0 0 25.564 22.695">
  <path id="Trazado_3495" data-name="Trazado 3495" d="M279.343-141.167h-6.361a.215.215,0,0,0-.215.215v6.179a.215.215,0,0,0,.215.215h6.361a.215.215,0,0,0,.215-.215v-6.179A.215.215,0,0,0,279.343-141.167Zm-4.193.86H277.2v1.314l-.984-.8a.152.152,0,0,0-.052-.009.153.153,0,0,0-.054.01l-.961.794Zm3.532,4.89h-5.038v-4.89h1.12v1.764a.154.154,0,0,0,.066.127.154.154,0,0,0,.142.018l1.194-.929,1.215.93a.149.149,0,0,0,.051.009.156.156,0,0,0,.089-.028.155.155,0,0,0,.065-.126v-1.764h1.094Z" transform="translate(-272.768 144.841)" fill="#222"/>
  <path id="Trazado_3496" data-name="Trazado 3496" d="M295.458-125.321a3.559,3.559,0,0,0-.394.023l-.069-.294a9.776,9.776,0,0,1,2.784.18.747.747,0,0,0,.849-.416.746.746,0,0,0-.225-.916,4.622,4.622,0,0,0-.86-.512,10.2,10.2,0,0,0-3.147-.88l-.18-.766-.775-.822a.467.467,0,0,0-.112-.085.967.967,0,0,0,.039-.258.987.987,0,0,0-.986-.986.987.987,0,0,0-.986.986.987.987,0,0,0,.986.986.976.976,0,0,0,.314-.056.478.478,0,0,0,.051.067l.5.532a24.828,24.828,0,0,1-4.125.522,8.271,8.271,0,0,1-1.627-.182,6.2,6.2,0,0,0-1.933-.147c-.337-.346-.534-.551-.539-.556l-.113-.117h-2.286v2.863H276.35v2.19h3.707a4.04,4.04,0,0,0-.368,1.691,4.076,4.076,0,0,0,4.071,4.072,4.074,4.074,0,0,0,4.066-3.968,1.867,1.867,0,0,0,.609.1,1.879,1.879,0,0,0,1.867-1.687l.012-.01a7.253,7.253,0,0,1,3.723-1.722l.1.422a3.562,3.562,0,0,0-2.24,3.3,3.563,3.563,0,0,0,3.559,3.559,3.563,3.563,0,0,0,3.559-3.559A3.563,3.563,0,0,0,295.458-125.321Zm1.38-1.2a11.929,11.929,0,0,0-2.065-.009l-.146-.62A9.255,9.255,0,0,1,296.838-126.523Zm-4.871-3.544a.414.414,0,0,1,.413-.414.414.414,0,0,1,.414.414.414.414,0,0,1-.414.413A.414.414,0,0,1,291.967-130.067Zm-4.639,2.809a9.675,9.675,0,0,0,1.683.2l.14,0a22.91,22.91,0,0,0,2.5-.225,7.791,7.791,0,0,1-3,1.48,1.859,1.859,0,0,0-.216-.014c-.051,0-.1,0-.152.008a.724.724,0,0,1-.4-.192c-.512-.507-.981-.976-1.384-1.384C286.763-127.357,287.041-127.308,287.328-127.257Zm-.766,3.338a1.863,1.863,0,0,0,.132.667l-2.8,1.29-.039.02a.348.348,0,0,1-.265.035.347.347,0,0,1-.212-.163.346.346,0,0,1-.035-.265.348.348,0,0,1,.147-.2Zm-9.448-.809v-.663h6.274v-2.863h1.2c.337.349,1.395,1.438,2.759,2.787a1.893,1.893,0,0,0-.323.294l-.987.444h-5.4l-.078-.061c-.016.02-.029.041-.044.061Zm6.648,5.571a3.121,3.121,0,0,1-3.117-3.117,3.083,3.083,0,0,1,.5-1.691h3.2l-1.265.569-.043.022a1.3,1.3,0,0,0-.607.792,1.294,1.294,0,0,0,.13.989,1.294,1.294,0,0,0,.792.608,1.322,1.322,0,0,0,.339.045,1.3,1.3,0,0,0,.629-.163l2.564-1.182s0,.008,0,.011A3.121,3.121,0,0,1,283.761-119.157Zm4.676-3.865a.924.924,0,0,1-.922-.922.924.924,0,0,1,.922-.922.924.924,0,0,1,.922.922A.924.924,0,0,1,288.436-123.022Zm1.656-1.8a1.883,1.883,0,0,0-.375-.488,14.1,14.1,0,0,0,3.551-2.255l.267-.056.284,1.2A8.476,8.476,0,0,0,290.093-124.824Zm5.365,5.667a2.608,2.608,0,0,1-2.6-2.605,2.606,2.606,0,0,1,1.508-2.359l.513,2.179a.478.478,0,0,0,.464.368.487.487,0,0,0,.11-.013.477.477,0,0,0,.355-.574l-.518-2.2c.057,0,.114-.009.173-.009a2.608,2.608,0,0,1,2.6,2.6A2.608,2.608,0,0,1,295.458-119.157Z" transform="translate(-275.476 137.195)" fill="#222"/>
  <g id="Grupo_237" data-name="Grupo 237" transform="translate(7.432 19.468)">
    <path id="Trazado_3497" data-name="Trazado 3497" d="M310.008-73.219a11.253,11.253,0,0,1-6.784-2.25l.73-.978a10.041,10.041,0,0,0,6.054,2.007,10.044,10.044,0,0,0,6.034-1.993l.728.98A11.257,11.257,0,0,1,310.008-73.219Z" transform="translate(-303.224 76.447)" fill="#222"/>
  </g>
  <g id="Grupo_238" data-name="Grupo 238" transform="translate(7.023)">
    <path id="Trazado_3498" data-name="Trazado 3498" d="M319.782-142.253l-1.187-.281a10.17,10.17,0,0,0,.272-2.34A10.139,10.139,0,0,0,308.738-155a10.145,10.145,0,0,0-6.419,2.294l-.774-.943a11.369,11.369,0,0,1,7.193-2.571,11.361,11.361,0,0,1,11.348,11.348A11.4,11.4,0,0,1,319.782-142.253Z" transform="translate(-301.545 156.221)" fill="#222"/>
  </g>
</svg>
