<svg id="Grupo_235" data-name="Grupo 235" xmlns="http://www.w3.org/2000/svg" width="25.963" height="29" viewBox="0 0 25.963 29">
  <g id="Grupo_42" data-name="Grupo 42" transform="translate(0 3.037)">
    <path id="Trazado_3349" data-name="Trazado 3349" d="M23.54,13.757A12.982,12.982,0,1,0,36.522,26.739,13,13,0,0,0,23.54,13.757M35.035,26.739A11.494,11.494,0,1,1,23.54,15.245,11.507,11.507,0,0,1,35.035,26.739" transform="translate(-10.559 -13.757)" fill="#222"/>
  </g>
  <rect id="Rectángulo_31" data-name="Rectángulo 31" width="5.266" height="1.532" rx="0.766" transform="translate(10.349)" fill="#222"/>
  <rect id="Rectángulo_32" data-name="Rectángulo 32" width="4.047" height="1.532" transform="translate(13.748 0.144) rotate(90)" fill="#222"/>
  <path id="Trazado_3350" data-name="Trazado 3350" d="M48.127,47.164,58,42.306l.188.339-8.767,6.648Z" transform="translate(-37.153 -30.93)" fill="#222"/>
  <rect id="Rectángulo_33" data-name="Rectángulo 33" width="4.047" height="1.532" rx="0.766" transform="translate(12.228 9.176) rotate(-90)" fill="#222"/>
  <rect id="Rectángulo_34" data-name="Rectángulo 34" width="4.047" height="1.532" rx="0.766" transform="translate(17.201 10.606) rotate(-45)" fill="#222"/>
  <rect id="Rectángulo_35" data-name="Rectángulo 35" width="4.047" height="1.532" rx="0.766" transform="translate(14.927 9.417) rotate(-66.878)" fill="#222"/>
  <rect id="Rectángulo_36" data-name="Rectángulo 36" width="2.941" height="1.532" rx="0.766" transform="translate(19.788 2.831) rotate(113.052)" fill="#222"/>
</svg>
